<?xml version="1.0" standalone="no"?>
<!DOCTYPE svg PUBLIC "-//W3C//DTD SVG 20010904//EN"
 "http://www.w3.org/TR/2001/REC-SVG-20010904/DTD/svg10.dtd">
<svg version="1.0" xmlns="http://www.w3.org/2000/svg"
 width="700.000000pt" height="700.000000pt" viewBox="0 0 700.000000 700.000000"
 preserveAspectRatio="xMidYMid meet">
<metadata>
Created by potrace 1.11, written by Peter Selinger 2001-2013
</metadata>
<g transform="translate(0.000000,700.000000) scale(0.100000,-0.100000)"
fill="#000000" stroke="none">
<path d="M4499 6950 c-13 -22 -27 -40 -31 -40 -5 0 -8 -4 -8 -10 0 -5 -7 -18
-15 -27 -8 -10 -75 -101 -149 -203 -74 -102 -139 -189 -143 -195 -9 -10 -339
-464 -785 -1077 -136 -187 -257 -352 -268 -367 -11 -14 -48 -64 -82 -111 -34
-47 -140 -193 -237 -325 -96 -132 -332 -456 -524 -720 -193 -264 -371 -509
-398 -545 -138 -189 -286 -391 -299 -410 -8 -12 -36 -51 -62 -85 -29 -39 -43
-65 -35 -67 7 -2 461 -4 1010 -3 l998 0 -6 -25 c-4 -14 -17 -52 -30 -85 -34
-87 -345 -937 -350 -955 -2 -8 -25 -71 -50 -140 -50 -133 -155 -421 -370
-1010 -73 -201 -147 -402 -164 -448 -17 -46 -31 -86 -31 -89 0 -3 31 37 68 88
59 81 421 578 550 754 24 33 51 71 60 83 9 13 44 61 77 105 34 45 155 212 270
370 249 343 468 644 489 672 8 11 69 94 135 185 66 91 127 174 135 185 77 104
93 126 106 145 8 12 36 50 61 84 25 33 205 279 399 546 194 267 369 508 390
535 98 132 339 465 337 466 -1 1 -453 2 -1004 3 -551 0 -1004 4 -1007 7 -5 5
215 626 251 709 3 8 7 20 8 25 2 6 24 66 50 135 26 69 53 145 61 170 8 25 19
54 24 65 10 20 107 285 142 385 10 30 23 64 27 75 5 11 21 54 36 95 15 41 88
242 162 445 167 459 153 421 197 539 20 55 35 101 33 102 -2 2 -14 -14 -28
-36z"/>
</g>
</svg>
