<svg version="1.0" xmlns="http://www.w3.org/2000/svg" viewBox="0 0 700 700"><path d="M449.9 5c-1.3 2.2-2.7 4-3.1 4-.5 0-.8.4-.8 1 0 .5-.7 1.8-1.5 2.7-.8 1-7.5 10.1-14.9 20.3-7.4 10.2-13.9 18.9-14.3 19.5-.9 1-33.9 46.4-78.5 107.7-13.6 18.7-25.7 35.2-26.8 36.7-1.1 1.4-4.8 6.4-8.2 11.1-3.4 4.7-14 19.3-23.7 32.5-9.6 13.2-33.2 45.6-52.4 72-19.3 26.4-37.1 50.9-39.8 54.5-13.8 18.9-28.6 39.1-29.9 41-.8 1.2-3.6 5.1-6.2 8.5-2.9 3.9-4.3 6.5-3.5 6.7.7.2 46.1.4 101 .3h99.8l-.6 2.5c-.4 1.4-1.7 5.2-3 8.5-3.4 8.7-34.5 93.7-35 95.5-.2.8-2.5 7.1-5 14-5 13.3-15.5 42.1-37 101-7.3 20.1-14.7 40.2-16.4 44.8-1.7 4.6-3.1 8.6-3.1 8.9 0 .3 3.1-3.7 6.8-8.8 5.9-8.1 42.1-57.8 55-75.4 2.4-3.3 5.1-7.1 6-8.3.9-1.3 4.4-6.1 7.7-10.5 3.4-4.5 15.5-21.2 27-37 24.9-34.3 46.8-64.4 48.9-67.2.8-1.1 6.9-9.4 13.5-18.5s12.7-17.4 13.5-18.5c7.7-10.4 9.3-12.6 10.6-14.5.8-1.2 3.6-5 6.1-8.4 2.5-3.3 20.5-27.9 39.9-54.6 19.4-26.7 36.9-50.8 39-53.5 9.8-13.2 33.9-46.5 33.7-46.6-.1-.1-45.3-.2-100.4-.3-55.1 0-100.4-.4-100.7-.7-.5-.5 21.5-62.6 25.1-70.9.3-.8.7-2 .8-2.5.2-.6 2.4-6.6 5-13.5s5.3-14.5 6.1-17c.8-2.5 1.9-5.4 2.4-6.5 1-2 10.7-28.5 14.2-38.5 1-3 2.3-6.4 2.7-7.5.5-1.1 2.1-5.4 3.6-9.5s8.8-24.2 16.2-44.5c16.7-45.9 15.3-42.1 19.7-53.9 2-5.5 3.5-10.1 3.3-10.2-.2-.2-1.4 1.4-2.8 3.6z"/></svg>